<mxfile host="65bd71144e">
    <diagram id="wTPJ9IdSfgJ0zQz6QCl7" name="website">
        <mxGraphModel dx="3533" dy="4213" grid="1" gridSize="10" guides="1" tooltips="1" connect="1" arrows="1" fold="1" page="1" pageScale="1" pageWidth="850" pageHeight="1100" math="0" shadow="0">
            <root>
                <mxCell id="0"/>
                <mxCell id="1" parent="0"/>
                <mxCell id="3" value="" style="strokeWidth=1;shadow=0;dashed=0;align=center;html=1;shape=mxgraph.mockup.containers.browserWindow;rSize=0;strokeColor=#666666;strokeColor2=#008cff;strokeColor3=#c4c4c4;mainText=,;recursiveResize=0;" vertex="1" parent="1">
                    <mxGeometry x="70" y="240" width="1450" height="820" as="geometry"/>
                </mxCell>
                <mxCell id="4" value="Winter Cup" style="strokeWidth=1;shadow=0;dashed=0;align=center;html=1;shape=mxgraph.mockup.containers.anchor;fontSize=17;fontColor=#666666;align=left;" vertex="1" parent="3">
                    <mxGeometry x="60" y="12" width="110" height="26" as="geometry"/>
                </mxCell>
                <mxCell id="5" value="https://www.lazio-winter-cup.web.app" style="strokeWidth=1;shadow=0;dashed=0;align=center;html=1;shape=mxgraph.mockup.containers.anchor;rSize=0;fontSize=17;fontColor=#666666;align=left;" vertex="1" parent="3">
                    <mxGeometry x="130" y="60" width="300" height="26" as="geometry"/>
                </mxCell>
                <mxCell id="37" value="" style="verticalLabelPosition=bottom;shadow=0;dashed=0;align=center;html=1;verticalAlign=top;strokeWidth=1;shape=mxgraph.mockup.graphics.simpleIcon;strokeColor=#999999;" vertex="1" parent="3">
                    <mxGeometry x="5" y="110" width="1440" height="700" as="geometry"/>
                </mxCell>
                <mxCell id="36" value="" style="rounded=0;whiteSpace=wrap;html=1;" vertex="1" parent="3">
                    <mxGeometry x="290" y="110" width="840" height="700" as="geometry"/>
                </mxCell>
                <mxCell id="38" value="" style="rounded=0;whiteSpace=wrap;html=1;strokeColor=#FFFFFF;strokeWidth=1;" vertex="1" parent="3">
                    <mxGeometry x="880" y="110" width="250" height="110" as="geometry"/>
                </mxCell>
                <mxCell id="7" value="squadre" style="strokeWidth=1;shadow=0;dashed=0;align=center;html=1;shape=mxgraph.mockup.buttons.button;strokeColor=#666666;fontColor=#ffffff;mainText=;buttonStyle=round;fontSize=17;fontStyle=1;fillColor=#008cff;whiteSpace=wrap;" vertex="1" parent="3">
                    <mxGeometry x="937.5" y="140" width="150" height="50" as="geometry"/>
                </mxCell>
                <mxCell id="9" value="&amp;gt;" style="strokeWidth=1;shadow=0;dashed=0;align=center;html=1;shape=mxgraph.mockup.buttons.button;strokeColor=#666666;fontColor=#ffffff;mainText=;buttonStyle=round;fontSize=17;fontStyle=1;fillColor=#008cff;whiteSpace=wrap;" vertex="1" parent="3">
                    <mxGeometry x="797.5" y="140" width="50" height="50" as="geometry"/>
                </mxCell>
                <mxCell id="12" value="" style="verticalLabelPosition=bottom;shadow=0;dashed=0;align=center;html=1;verticalAlign=top;strokeWidth=1;shape=mxgraph.mockup.graphics.simpleIcon;strokeColor=#999999;" vertex="1" parent="3">
                    <mxGeometry x="357.5" y="310" width="50" height="50" as="geometry"/>
                </mxCell>
                <mxCell id="33" value="" style="verticalLabelPosition=bottom;shadow=0;dashed=0;align=center;html=1;verticalAlign=top;strokeWidth=1;shape=mxgraph.mockup.graphics.simpleIcon;strokeColor=#999999;" vertex="1" parent="3">
                    <mxGeometry x="1032.5" y="460" width="50" height="50" as="geometry"/>
                </mxCell>
                <mxCell id="40" value="" style="endArrow=none;html=1;entryX=0;entryY=0;entryDx=0;entryDy=0;exitX=0;exitY=1;exitDx=0;exitDy=0;" edge="1" parent="3" source="38" target="38">
                    <mxGeometry width="50" height="50" relative="1" as="geometry">
                        <mxPoint x="930" y="460" as="sourcePoint"/>
                        <mxPoint x="980" y="410" as="targetPoint"/>
                    </mxGeometry>
                </mxCell>
                <mxCell id="39" value="" style="endArrow=none;html=1;entryX=1;entryY=1;entryDx=0;entryDy=0;entryPerimeter=0;exitX=0;exitY=1;exitDx=0;exitDy=0;" edge="1" parent="3" source="38" target="38">
                    <mxGeometry width="50" height="50" relative="1" as="geometry">
                        <mxPoint x="860" y="590" as="sourcePoint"/>
                        <mxPoint x="910" y="540" as="targetPoint"/>
                    </mxGeometry>
                </mxCell>
                <mxCell id="41" value="8:00" style="text;html=1;strokeColor=none;fillColor=none;align=center;verticalAlign=middle;whiteSpace=wrap;rounded=0;fontSize=25;" vertex="1" parent="3">
                    <mxGeometry x="370" y="280" width="72.5" height="20" as="geometry"/>
                </mxCell>
                <mxCell id="42" value="8:30" style="text;html=1;strokeColor=none;fillColor=none;align=center;verticalAlign=middle;whiteSpace=wrap;rounded=0;fontSize=25;" vertex="1" parent="3">
                    <mxGeometry x="370" y="380" width="72.5" height="20" as="geometry"/>
                </mxCell>
                <mxCell id="43" value="8:00" style="text;html=1;strokeColor=none;fillColor=none;align=center;verticalAlign=middle;whiteSpace=wrap;rounded=0;fontSize=25;" vertex="1" parent="3">
                    <mxGeometry x="370" y="500" width="72.5" height="20" as="geometry"/>
                </mxCell>
                <mxCell id="46" value="9:15" style="text;html=1;strokeColor=none;fillColor=none;align=center;verticalAlign=middle;whiteSpace=wrap;rounded=0;fontSize=25;" vertex="1" parent="3">
                    <mxGeometry x="580" y="530" width="72.5" height="20" as="geometry"/>
                </mxCell>
                <mxCell id="8" value="&amp;lt;" style="strokeWidth=1;shadow=0;dashed=0;align=center;html=1;shape=mxgraph.mockup.buttons.button;strokeColor=#666666;fontColor=#ffffff;mainText=;buttonStyle=round;fontSize=17;fontStyle=1;fillColor=#008cff;whiteSpace=wrap;" vertex="1" parent="1">
                    <mxGeometry x="422.5" y="380" width="50" height="50" as="geometry"/>
                </mxCell>
                <mxCell id="10" value="&lt;font style=&quot;font-size: 35px&quot;&gt;torneo 28 dicembre&lt;/font&gt;" style="text;html=1;strokeColor=none;fillColor=none;align=center;verticalAlign=middle;whiteSpace=wrap;rounded=0;" vertex="1" parent="1">
                    <mxGeometry x="497.5" y="395" width="360" height="20" as="geometry"/>
                </mxCell>
                <mxCell id="13" value="" style="verticalLabelPosition=bottom;shadow=0;dashed=0;align=center;html=1;verticalAlign=top;strokeWidth=1;shape=mxgraph.mockup.graphics.simpleIcon;strokeColor=#999999;" vertex="1" parent="1">
                    <mxGeometry x="482.5" y="550" width="50" height="50" as="geometry"/>
                </mxCell>
                <mxCell id="15" value="" style="verticalLabelPosition=bottom;shadow=0;dashed=0;align=center;html=1;verticalAlign=top;strokeWidth=1;shape=mxgraph.mockup.graphics.simpleIcon;strokeColor=#999999;" vertex="1" parent="1">
                    <mxGeometry x="427.5" y="650" width="50" height="50" as="geometry"/>
                </mxCell>
                <mxCell id="16" value="" style="verticalLabelPosition=bottom;shadow=0;dashed=0;align=center;html=1;verticalAlign=top;strokeWidth=1;shape=mxgraph.mockup.graphics.simpleIcon;strokeColor=#999999;" vertex="1" parent="1">
                    <mxGeometry x="482.5" y="650" width="50" height="50" as="geometry"/>
                </mxCell>
                <mxCell id="17" value="" style="verticalLabelPosition=bottom;shadow=0;dashed=0;align=center;html=1;verticalAlign=top;strokeWidth=1;shape=mxgraph.mockup.graphics.simpleIcon;strokeColor=#999999;" vertex="1" parent="1">
                    <mxGeometry x="425" y="770" width="50" height="50" as="geometry"/>
                </mxCell>
                <mxCell id="18" value="" style="verticalLabelPosition=bottom;shadow=0;dashed=0;align=center;html=1;verticalAlign=top;strokeWidth=1;shape=mxgraph.mockup.graphics.simpleIcon;strokeColor=#999999;" vertex="1" parent="1">
                    <mxGeometry x="480" y="770" width="50" height="50" as="geometry"/>
                </mxCell>
                <mxCell id="19" value="" style="verticalLabelPosition=bottom;shadow=0;dashed=0;align=center;html=1;verticalAlign=top;strokeWidth=1;shape=mxgraph.mockup.graphics.simpleIcon;strokeColor=#999999;" vertex="1" parent="1">
                    <mxGeometry x="425" y="870" width="50" height="50" as="geometry"/>
                </mxCell>
                <mxCell id="20" value="" style="verticalLabelPosition=bottom;shadow=0;dashed=0;align=center;html=1;verticalAlign=top;strokeWidth=1;shape=mxgraph.mockup.graphics.simpleIcon;strokeColor=#999999;" vertex="1" parent="1">
                    <mxGeometry x="480" y="870" width="50" height="50" as="geometry"/>
                </mxCell>
                <mxCell id="21" value="" style="endArrow=none;html=1;exitX=1.057;exitY=0.64;exitDx=0;exitDy=0;exitPerimeter=0;entryX=0.507;entryY=1.04;entryDx=0;entryDy=0;entryPerimeter=0;edgeStyle=orthogonalEdgeStyle;" edge="1" parent="1" source="20" target="22">
                    <mxGeometry width="50" height="50" relative="1" as="geometry">
                        <mxPoint x="752.5" y="920" as="sourcePoint"/>
                        <mxPoint x="802.5" y="870" as="targetPoint"/>
                        <Array as="points">
                            <mxPoint x="652.5" y="902"/>
                        </Array>
                    </mxGeometry>
                </mxCell>
                <mxCell id="22" value="" style="verticalLabelPosition=bottom;shadow=0;dashed=0;align=center;html=1;verticalAlign=top;strokeWidth=1;shape=mxgraph.mockup.graphics.simpleIcon;strokeColor=#999999;" vertex="1" parent="1">
                    <mxGeometry x="627.5" y="820" width="50" height="50" as="geometry"/>
                </mxCell>
                <mxCell id="23" value="" style="verticalLabelPosition=bottom;shadow=0;dashed=0;align=center;html=1;verticalAlign=top;strokeWidth=1;shape=mxgraph.mockup.graphics.simpleIcon;strokeColor=#999999;" vertex="1" parent="1">
                    <mxGeometry x="682.5" y="820" width="50" height="50" as="geometry"/>
                </mxCell>
                <mxCell id="24" value="" style="verticalLabelPosition=bottom;shadow=0;dashed=0;align=center;html=1;verticalAlign=top;strokeWidth=1;shape=mxgraph.mockup.graphics.simpleIcon;strokeColor=#999999;" vertex="1" parent="1">
                    <mxGeometry x="622.5" y="600" width="55" height="50" as="geometry"/>
                </mxCell>
                <mxCell id="25" value="" style="verticalLabelPosition=bottom;shadow=0;dashed=0;align=center;html=1;verticalAlign=top;strokeWidth=1;shape=mxgraph.mockup.graphics.simpleIcon;strokeColor=#999999;" vertex="1" parent="1">
                    <mxGeometry x="682.5" y="600" width="45" height="50" as="geometry"/>
                </mxCell>
                <mxCell id="26" value="" style="endArrow=none;html=1;exitX=1.073;exitY=0.732;exitDx=0;exitDy=0;exitPerimeter=0;entryX=0.585;entryY=1.002;entryDx=0;entryDy=0;entryPerimeter=0;edgeStyle=orthogonalEdgeStyle;" edge="1" parent="1" source="16" target="25">
                    <mxGeometry width="50" height="50" relative="1" as="geometry">
                        <mxPoint x="582.5000000000001" y="700" as="sourcePoint"/>
                        <mxPoint x="702.5000000000001" y="670" as="targetPoint"/>
                        <Array as="points">
                            <mxPoint x="702.5" y="687"/>
                            <mxPoint x="702.5" y="650"/>
                        </Array>
                    </mxGeometry>
                </mxCell>
                <mxCell id="27" value="" style="endArrow=none;html=1;exitX=1.073;exitY=0.732;exitDx=0;exitDy=0;exitPerimeter=0;edgeStyle=orthogonalEdgeStyle;entryX=0.546;entryY=0.026;entryDx=0;entryDy=0;entryPerimeter=0;" edge="1" parent="1" target="23">
                    <mxGeometry width="50" height="50" relative="1" as="geometry">
                        <mxPoint x="530.0000000000001" y="796.4999999999999" as="sourcePoint"/>
                        <mxPoint x="700.6" y="759.9999999999999" as="targetPoint"/>
                        <Array as="points">
                            <mxPoint x="709.5" y="796"/>
                        </Array>
                    </mxGeometry>
                </mxCell>
                <mxCell id="28" value="" style="endArrow=none;html=1;exitX=1.039;exitY=0.39;exitDx=0;exitDy=0;exitPerimeter=0;edgeStyle=orthogonalEdgeStyle;entryX=0.392;entryY=-0.031;entryDx=0;entryDy=0;entryPerimeter=0;" edge="1" parent="1" source="13" target="24">
                    <mxGeometry width="50" height="50" relative="1" as="geometry">
                        <mxPoint x="530" y="575.2" as="sourcePoint"/>
                        <mxPoint x="709.8000000000002" y="600.0000000000002" as="targetPoint"/>
                        <Array as="points">
                            <mxPoint x="534.5" y="575"/>
                            <mxPoint x="642.5" y="575"/>
                            <mxPoint x="642.5" y="598"/>
                        </Array>
                    </mxGeometry>
                </mxCell>
                <mxCell id="29" value="" style="verticalLabelPosition=bottom;shadow=0;dashed=0;align=center;html=1;verticalAlign=top;strokeWidth=1;shape=mxgraph.mockup.graphics.simpleIcon;strokeColor=#999999;" vertex="1" parent="1">
                    <mxGeometry x="852.5" y="700" width="50" height="50" as="geometry"/>
                </mxCell>
                <mxCell id="30" value="" style="verticalLabelPosition=bottom;shadow=0;dashed=0;align=center;html=1;verticalAlign=top;strokeWidth=1;shape=mxgraph.mockup.graphics.simpleIcon;strokeColor=#999999;" vertex="1" parent="1">
                    <mxGeometry x="907.5" y="700" width="50" height="50" as="geometry"/>
                </mxCell>
                <mxCell id="31" value="" style="endArrow=none;html=1;exitX=1.073;exitY=0.732;exitDx=0;exitDy=0;exitPerimeter=0;entryX=0.449;entryY=-0.056;entryDx=0;entryDy=0;entryPerimeter=0;edgeStyle=orthogonalEdgeStyle;" edge="1" parent="1" target="29">
                    <mxGeometry width="50" height="50" relative="1" as="geometry">
                        <mxPoint x="727.4999999999999" y="626.4999999999997" as="sourcePoint"/>
                        <mxPoint x="898.0999999999998" y="589.9999999999999" as="targetPoint"/>
                    </mxGeometry>
                </mxCell>
                <mxCell id="32" value="" style="endArrow=none;html=1;exitX=1;exitY=0.6;exitDx=0;exitDy=0;exitPerimeter=0;edgeStyle=orthogonalEdgeStyle;" edge="1" parent="1" source="23" target="30">
                    <mxGeometry width="50" height="50" relative="1" as="geometry">
                        <mxPoint x="752.4999999999998" y="850.0299999999995" as="sourcePoint"/>
                        <mxPoint x="899.9499999999998" y="920.7299999999998" as="targetPoint"/>
                    </mxGeometry>
                </mxCell>
                <mxCell id="34" value="" style="endArrow=none;html=1;exitX=1.06;exitY=0.58;exitDx=0;exitDy=0;exitPerimeter=0;" edge="1" parent="1" source="30">
                    <mxGeometry width="50" height="50" relative="1" as="geometry">
                        <mxPoint x="1062.5" y="920" as="sourcePoint"/>
                        <mxPoint x="1102.5" y="730" as="targetPoint"/>
                    </mxGeometry>
                </mxCell>
                <mxCell id="35" value="" style="html=1;verticalLabelPosition=bottom;align=center;labelBackgroundColor=#ffffff;verticalAlign=top;strokeWidth=2;strokeColor=#0080F0;shadow=0;dashed=0;shape=mxgraph.ios7.icons.trophy;" vertex="1" parent="1">
                    <mxGeometry x="1132.5" y="730" width="28.5" height="30" as="geometry"/>
                </mxCell>
                <mxCell id="44" value="8:30" style="text;html=1;strokeColor=none;fillColor=none;align=center;verticalAlign=middle;whiteSpace=wrap;rounded=0;fontSize=25;" vertex="1" parent="1">
                    <mxGeometry x="440" y="840" width="72.5" height="20" as="geometry"/>
                </mxCell>
                <mxCell id="45" value="9:00" style="text;html=1;strokeColor=none;fillColor=none;align=center;verticalAlign=middle;whiteSpace=wrap;rounded=0;fontSize=25;" vertex="1" parent="1">
                    <mxGeometry x="650" y="565" width="72.5" height="20" as="geometry"/>
                </mxCell>
                <mxCell id="47" value="9:45" style="text;html=1;strokeColor=none;fillColor=none;align=center;verticalAlign=middle;whiteSpace=wrap;rounded=0;fontSize=25;" vertex="1" parent="1">
                    <mxGeometry x="880" y="665" width="72.5" height="20" as="geometry"/>
                </mxCell>
                <mxCell id="48" value="" style="strokeWidth=1;shadow=0;dashed=0;align=center;html=1;shape=mxgraph.mockup.containers.browserWindow;rSize=0;strokeColor=#666666;strokeColor2=#008cff;strokeColor3=#c4c4c4;mainText=,;recursiveResize=0;" vertex="1" parent="1">
                    <mxGeometry x="80" y="1110" width="1450" height="800" as="geometry"/>
                </mxCell>
                <mxCell id="49" value="Winter Cup" style="strokeWidth=1;shadow=0;dashed=0;align=center;html=1;shape=mxgraph.mockup.containers.anchor;fontSize=17;fontColor=#666666;align=left;" vertex="1" parent="48">
                    <mxGeometry x="60" y="12" width="110" height="26" as="geometry"/>
                </mxCell>
                <mxCell id="50" value="https://www.lazio-winter-cup.web.app" style="strokeWidth=1;shadow=0;dashed=0;align=center;html=1;shape=mxgraph.mockup.containers.anchor;rSize=0;fontSize=17;fontColor=#666666;align=left;" vertex="1" parent="48">
                    <mxGeometry x="130" y="60" width="300" height="26" as="geometry"/>
                </mxCell>
                <mxCell id="51" value="" style="verticalLabelPosition=bottom;shadow=0;dashed=0;align=center;html=1;verticalAlign=top;strokeWidth=1;shape=mxgraph.mockup.graphics.simpleIcon;strokeColor=#999999;" vertex="1" parent="48">
                    <mxGeometry x="5" y="110" width="1440" height="700" as="geometry"/>
                </mxCell>
                <mxCell id="52" value="" style="rounded=0;whiteSpace=wrap;html=1;" vertex="1" parent="48">
                    <mxGeometry x="290" y="110" width="840" height="700" as="geometry"/>
                </mxCell>
                <mxCell id="54" value="&amp;lt;== home" style="strokeWidth=1;shadow=0;dashed=0;align=center;html=1;shape=mxgraph.mockup.buttons.button;strokeColor=#666666;fontColor=#ffffff;mainText=;buttonStyle=round;fontSize=17;fontStyle=1;fillColor=#008cff;whiteSpace=wrap;" vertex="1" parent="48">
                    <mxGeometry x="937.5" y="140" width="150" height="50" as="geometry"/>
                </mxCell>
                <mxCell id="94" value="" style="rounded=0;whiteSpace=wrap;html=1;fontSize=33;strokeWidth=1;" vertex="1" parent="48">
                    <mxGeometry x="327.5" y="250" width="760" height="130" as="geometry"/>
                </mxCell>
                <mxCell id="91" value="ASD Pallavolo 1" style="text;html=1;strokeColor=none;fillColor=none;align=center;verticalAlign=middle;whiteSpace=wrap;rounded=0;fontSize=33;" vertex="1" parent="48">
                    <mxGeometry x="447.5" y="280" width="280" height="20" as="geometry"/>
                </mxCell>
                <mxCell id="92" value="vittorie: 2" style="text;html=1;strokeColor=none;fillColor=none;align=center;verticalAlign=middle;whiteSpace=wrap;rounded=0;fontSize=25;" vertex="1" parent="48">
                    <mxGeometry x="447.5" y="330" width="140" height="20" as="geometry"/>
                </mxCell>
                <mxCell id="95" value="tornei" style="text;html=1;strokeColor=none;fillColor=none;align=center;verticalAlign=middle;whiteSpace=wrap;rounded=0;fontSize=25;" vertex="1" parent="48">
                    <mxGeometry x="777.5" y="270" width="110" height="20" as="geometry"/>
                </mxCell>
                <mxCell id="96" value="28 dicembre" style="text;html=1;strokeColor=none;fillColor=none;align=center;verticalAlign=middle;whiteSpace=wrap;rounded=0;fontSize=25;" vertex="1" parent="48">
                    <mxGeometry x="827.5" y="300" width="170" height="20" as="geometry"/>
                </mxCell>
                <mxCell id="107" value="" style="rounded=0;whiteSpace=wrap;html=1;fontSize=33;strokeWidth=1;" vertex="1" parent="48">
                    <mxGeometry x="327.5" y="395" width="760" height="130" as="geometry"/>
                </mxCell>
                <mxCell id="108" value="ASD Pallavolo 2" style="text;html=1;strokeColor=none;fillColor=none;align=center;verticalAlign=middle;whiteSpace=wrap;rounded=0;fontSize=33;" vertex="1" parent="48">
                    <mxGeometry x="447.5" y="425" width="280" height="20" as="geometry"/>
                </mxCell>
                <mxCell id="109" value="vittorie: 3" style="text;html=1;strokeColor=none;fillColor=none;align=center;verticalAlign=middle;whiteSpace=wrap;rounded=0;fontSize=25;" vertex="1" parent="48">
                    <mxGeometry x="447.5" y="475" width="140" height="20" as="geometry"/>
                </mxCell>
                <mxCell id="110" value="tornei" style="text;html=1;strokeColor=none;fillColor=none;align=center;verticalAlign=middle;whiteSpace=wrap;rounded=0;fontSize=25;" vertex="1" parent="48">
                    <mxGeometry x="777.5" y="415" width="110" height="20" as="geometry"/>
                </mxCell>
                <mxCell id="111" value="28 dicembre" style="text;html=1;strokeColor=none;fillColor=none;align=center;verticalAlign=middle;whiteSpace=wrap;rounded=0;fontSize=25;" vertex="1" parent="48">
                    <mxGeometry x="827.5" y="445" width="170" height="20" as="geometry"/>
                </mxCell>
                <mxCell id="112" value="" style="verticalLabelPosition=bottom;shadow=0;dashed=0;align=center;html=1;verticalAlign=top;strokeWidth=1;shape=mxgraph.mockup.graphics.simpleIcon;strokeColor=#999999;" vertex="1" parent="48">
                    <mxGeometry x="352.5" y="415" width="97.5" height="90" as="geometry"/>
                </mxCell>
                <mxCell id="113" value="sconfitte: 0" style="text;html=1;strokeColor=none;fillColor=none;align=center;verticalAlign=middle;whiteSpace=wrap;rounded=0;fontSize=25;" vertex="1" parent="48">
                    <mxGeometry x="577.5" y="475" width="150" height="20" as="geometry"/>
                </mxCell>
                <mxCell id="114" value="30 dicembre" style="text;html=1;strokeColor=none;fillColor=none;align=center;verticalAlign=middle;whiteSpace=wrap;rounded=0;fontSize=25;" vertex="1" parent="48">
                    <mxGeometry x="827.5" y="465" width="170" height="20" as="geometry"/>
                </mxCell>
                <mxCell id="115" value="" style="rounded=0;whiteSpace=wrap;html=1;fontSize=33;strokeWidth=1;" vertex="1" parent="48">
                    <mxGeometry x="327.5" y="540" width="760" height="130" as="geometry"/>
                </mxCell>
                <mxCell id="116" value="ASD Pallavolo 3" style="text;html=1;strokeColor=none;fillColor=none;align=center;verticalAlign=middle;whiteSpace=wrap;rounded=0;fontSize=33;" vertex="1" parent="48">
                    <mxGeometry x="447.5" y="570" width="280" height="20" as="geometry"/>
                </mxCell>
                <mxCell id="117" value="vittorie: 1" style="text;html=1;strokeColor=none;fillColor=none;align=center;verticalAlign=middle;whiteSpace=wrap;rounded=0;fontSize=25;" vertex="1" parent="48">
                    <mxGeometry x="447.5" y="620" width="140" height="20" as="geometry"/>
                </mxCell>
                <mxCell id="118" value="tornei" style="text;html=1;strokeColor=none;fillColor=none;align=center;verticalAlign=middle;whiteSpace=wrap;rounded=0;fontSize=25;" vertex="1" parent="48">
                    <mxGeometry x="777.5" y="560" width="110" height="20" as="geometry"/>
                </mxCell>
                <mxCell id="119" value="28 dicembre" style="text;html=1;strokeColor=none;fillColor=none;align=center;verticalAlign=middle;whiteSpace=wrap;rounded=0;fontSize=25;" vertex="1" parent="48">
                    <mxGeometry x="827.5" y="590" width="170" height="20" as="geometry"/>
                </mxCell>
                <mxCell id="120" value="" style="verticalLabelPosition=bottom;shadow=0;dashed=0;align=center;html=1;verticalAlign=top;strokeWidth=1;shape=mxgraph.mockup.graphics.simpleIcon;strokeColor=#999999;" vertex="1" parent="48">
                    <mxGeometry x="352.5" y="560" width="97.5" height="90" as="geometry"/>
                </mxCell>
                <mxCell id="121" value="sconfitte: 2" style="text;html=1;strokeColor=none;fillColor=none;align=center;verticalAlign=middle;whiteSpace=wrap;rounded=0;fontSize=25;" vertex="1" parent="48">
                    <mxGeometry x="577.5" y="620" width="150" height="20" as="geometry"/>
                </mxCell>
                <mxCell id="122" value="29 dicembre" style="text;html=1;strokeColor=none;fillColor=none;align=center;verticalAlign=middle;whiteSpace=wrap;rounded=0;fontSize=25;" vertex="1" parent="48">
                    <mxGeometry x="827.5" y="610" width="170" height="20" as="geometry"/>
                </mxCell>
                <mxCell id="204" value="" style="shape=flexArrow;endArrow=classic;html=1;fontSize=40;fillColor=#6a00ff;strokeColor=#3700CC;exitX=0.857;exitY=0.807;exitDx=0;exitDy=0;exitPerimeter=0;" edge="1" parent="48" source="30">
                    <mxGeometry width="50" height="50" relative="1" as="geometry">
                        <mxPoint x="880" y="-370" as="sourcePoint"/>
                        <mxPoint x="1510" y="250" as="targetPoint"/>
                    </mxGeometry>
                </mxCell>
                <mxCell id="90" value="" style="verticalLabelPosition=bottom;shadow=0;dashed=0;align=center;html=1;verticalAlign=top;strokeWidth=1;shape=mxgraph.mockup.graphics.simpleIcon;strokeColor=#999999;" vertex="1" parent="1">
                    <mxGeometry x="432.5" y="1380" width="97.5" height="90" as="geometry"/>
                </mxCell>
                <mxCell id="93" value="sconfitte: 1" style="text;html=1;strokeColor=none;fillColor=none;align=center;verticalAlign=middle;whiteSpace=wrap;rounded=0;fontSize=25;" vertex="1" parent="1">
                    <mxGeometry x="657.5" y="1440" width="150" height="20" as="geometry"/>
                </mxCell>
                <mxCell id="97" value="29 dicembre" style="text;html=1;strokeColor=none;fillColor=none;align=center;verticalAlign=middle;whiteSpace=wrap;rounded=0;fontSize=25;" vertex="1" parent="1">
                    <mxGeometry x="907.5" y="1430" width="170" height="20" as="geometry"/>
                </mxCell>
                <mxCell id="131" value="" style="verticalLabelPosition=bottom;shadow=0;dashed=0;align=center;html=1;verticalAlign=top;strokeWidth=1;shape=mxgraph.mockup.navigation.scrollBar;strokeColor=#999999;barPos=20;fillColor2=#99ddff;strokeColor2=none;direction=north;fontSize=33;" vertex="1" parent="1">
                    <mxGeometry x="1190" y="1350" width="20" height="570" as="geometry"/>
                </mxCell>
                <mxCell id="132" value="etc..." style="text;html=1;strokeColor=none;fillColor=none;align=center;verticalAlign=middle;whiteSpace=wrap;rounded=0;fontSize=33;" vertex="1" parent="1">
                    <mxGeometry x="732.5" y="1830" width="40" height="20" as="geometry"/>
                </mxCell>
                <mxCell id="133" value="30&amp;nbsp;dicembre" style="text;html=1;strokeColor=none;fillColor=none;align=center;verticalAlign=middle;whiteSpace=wrap;rounded=0;fontSize=25;" vertex="1" parent="1">
                    <mxGeometry x="907.5" y="1740" width="170" height="20" as="geometry"/>
                </mxCell>
                <mxCell id="135" value="" style="strokeWidth=1;shadow=0;dashed=0;align=center;html=1;shape=mxgraph.mockup.containers.browserWindow;rSize=0;strokeColor=#666666;strokeColor2=#008cff;strokeColor3=#c4c4c4;mainText=,;recursiveResize=0;" vertex="1" parent="1">
                    <mxGeometry x="1580" y="1100" width="1450" height="800" as="geometry"/>
                </mxCell>
                <mxCell id="136" value="Winter Cup" style="strokeWidth=1;shadow=0;dashed=0;align=center;html=1;shape=mxgraph.mockup.containers.anchor;fontSize=17;fontColor=#666666;align=left;" vertex="1" parent="135">
                    <mxGeometry x="60" y="12" width="110" height="26" as="geometry"/>
                </mxCell>
                <mxCell id="137" value="https://www.lazio-winter-cup.web.app" style="strokeWidth=1;shadow=0;dashed=0;align=center;html=1;shape=mxgraph.mockup.containers.anchor;rSize=0;fontSize=17;fontColor=#666666;align=left;" vertex="1" parent="135">
                    <mxGeometry x="130" y="60" width="300" height="26" as="geometry"/>
                </mxCell>
                <mxCell id="138" value="" style="verticalLabelPosition=bottom;shadow=0;dashed=0;align=center;html=1;verticalAlign=top;strokeWidth=1;shape=mxgraph.mockup.graphics.simpleIcon;strokeColor=#999999;" vertex="1" parent="135">
                    <mxGeometry x="5" y="110" width="1440" height="700" as="geometry"/>
                </mxCell>
                <mxCell id="139" value="" style="rounded=0;whiteSpace=wrap;html=1;" vertex="1" parent="135">
                    <mxGeometry x="290" y="110" width="840" height="700" as="geometry"/>
                </mxCell>
                <mxCell id="140" value="&amp;lt;== home" style="strokeWidth=1;shadow=0;dashed=0;align=center;html=1;shape=mxgraph.mockup.buttons.button;strokeColor=#666666;fontColor=#ffffff;mainText=;buttonStyle=round;fontSize=17;fontStyle=1;fillColor=#008cff;whiteSpace=wrap;" vertex="1" parent="135">
                    <mxGeometry x="937.5" y="140" width="150" height="50" as="geometry"/>
                </mxCell>
                <mxCell id="142" value="ASD Pallavolo 1" style="text;html=1;strokeColor=none;fillColor=none;align=center;verticalAlign=middle;whiteSpace=wrap;rounded=0;fontSize=50;" vertex="1" parent="135">
                    <mxGeometry x="470" y="230" width="380" height="20" as="geometry"/>
                </mxCell>
                <mxCell id="143" value="vittorie: 2" style="text;html=1;strokeColor=none;fillColor=none;align=center;verticalAlign=middle;whiteSpace=wrap;rounded=0;fontSize=25;" vertex="1" parent="135">
                    <mxGeometry x="475" y="280" width="140" height="20" as="geometry"/>
                </mxCell>
                <mxCell id="144" value="tornei" style="text;html=1;strokeColor=none;fillColor=none;align=center;verticalAlign=middle;whiteSpace=wrap;rounded=0;fontSize=25;" vertex="1" parent="135">
                    <mxGeometry x="615" y="960" width="110" height="20" as="geometry"/>
                </mxCell>
                <mxCell id="145" value="28 dicembre" style="text;html=1;strokeColor=none;fillColor=none;align=center;verticalAlign=middle;whiteSpace=wrap;rounded=0;fontSize=25;" vertex="1" parent="135">
                    <mxGeometry x="665" y="990" width="170" height="20" as="geometry"/>
                </mxCell>
                <mxCell id="181" value="" style="rounded=0;whiteSpace=wrap;html=1;fontSize=40;strokeWidth=1;fillColor=#f8cecc;strokeColor=none;" vertex="1" parent="135">
                    <mxGeometry x="340" y="450" width="740" height="70" as="geometry"/>
                </mxCell>
                <mxCell id="176" value="25-20" style="text;html=1;strokeColor=none;fillColor=none;align=center;verticalAlign=middle;whiteSpace=wrap;rounded=0;fontSize=25;" vertex="1" parent="135">
                    <mxGeometry x="475" y="490" width="110" height="20" as="geometry"/>
                </mxCell>
                <mxCell id="177" value="25-27" style="text;html=1;strokeColor=none;fillColor=none;align=center;verticalAlign=middle;whiteSpace=wrap;rounded=0;fontSize=25;" vertex="1" parent="135">
                    <mxGeometry x="585" y="490" width="110" height="20" as="geometry"/>
                </mxCell>
                <mxCell id="178" value="set 2" style="text;html=1;strokeColor=none;fillColor=none;align=center;verticalAlign=middle;whiteSpace=wrap;rounded=0;fontSize=25;" vertex="1" parent="135">
                    <mxGeometry x="580" y="460" width="110" height="20" as="geometry"/>
                </mxCell>
                <mxCell id="183" value="" style="rounded=0;whiteSpace=wrap;html=1;fontSize=40;strokeWidth=1;fillColor=#d5e8d4;strokeColor=none;" vertex="1" parent="135">
                    <mxGeometry x="340" y="590" width="740" height="70" as="geometry"/>
                </mxCell>
                <mxCell id="184" value="25-20" style="text;html=1;strokeColor=none;fillColor=none;align=center;verticalAlign=middle;whiteSpace=wrap;rounded=0;fontSize=25;" vertex="1" parent="135">
                    <mxGeometry x="475" y="630" width="110" height="20" as="geometry"/>
                </mxCell>
                <mxCell id="185" value="25-19" style="text;html=1;strokeColor=none;fillColor=none;align=center;verticalAlign=middle;whiteSpace=wrap;rounded=0;fontSize=25;" vertex="1" parent="135">
                    <mxGeometry x="585" y="630" width="110" height="20" as="geometry"/>
                </mxCell>
                <mxCell id="186" value="set 2" style="text;html=1;strokeColor=none;fillColor=none;align=center;verticalAlign=middle;whiteSpace=wrap;rounded=0;fontSize=25;" vertex="1" parent="135">
                    <mxGeometry x="580" y="600" width="110" height="20" as="geometry"/>
                </mxCell>
                <mxCell id="187" value="" style="verticalLabelPosition=bottom;shadow=0;dashed=0;align=center;html=1;verticalAlign=top;strokeWidth=1;shape=mxgraph.mockup.graphics.simpleIcon;strokeColor=#999999;" vertex="1" parent="135">
                    <mxGeometry x="355" y="600" width="50" height="50" as="geometry"/>
                </mxCell>
                <mxCell id="188" value="" style="verticalLabelPosition=bottom;shadow=0;dashed=0;align=center;html=1;verticalAlign=top;strokeWidth=1;shape=mxgraph.mockup.graphics.simpleIcon;strokeColor=#999999;" vertex="1" parent="135">
                    <mxGeometry x="410" y="600" width="50" height="50" as="geometry"/>
                </mxCell>
                <mxCell id="189" value="set 1" style="text;html=1;strokeColor=none;fillColor=none;align=center;verticalAlign=middle;whiteSpace=wrap;rounded=0;fontSize=25;" vertex="1" parent="135">
                    <mxGeometry x="470" y="600" width="110" height="20" as="geometry"/>
                </mxCell>
                <mxCell id="193" value="" style="rounded=0;whiteSpace=wrap;html=1;fontSize=40;strokeWidth=1;fillColor=#d5e8d4;strokeColor=none;" vertex="1" parent="135">
                    <mxGeometry x="340" y="670" width="740" height="70" as="geometry"/>
                </mxCell>
                <mxCell id="194" value="25-15" style="text;html=1;strokeColor=none;fillColor=none;align=center;verticalAlign=middle;whiteSpace=wrap;rounded=0;fontSize=25;" vertex="1" parent="135">
                    <mxGeometry x="475" y="710" width="110" height="20" as="geometry"/>
                </mxCell>
                <mxCell id="195" value="25-27" style="text;html=1;strokeColor=none;fillColor=none;align=center;verticalAlign=middle;whiteSpace=wrap;rounded=0;fontSize=25;" vertex="1" parent="135">
                    <mxGeometry x="585" y="710" width="110" height="20" as="geometry"/>
                </mxCell>
                <mxCell id="196" value="set 2" style="text;html=1;strokeColor=none;fillColor=none;align=center;verticalAlign=middle;whiteSpace=wrap;rounded=0;fontSize=25;" vertex="1" parent="135">
                    <mxGeometry x="580" y="680" width="110" height="20" as="geometry"/>
                </mxCell>
                <mxCell id="197" value="" style="verticalLabelPosition=bottom;shadow=0;dashed=0;align=center;html=1;verticalAlign=top;strokeWidth=1;shape=mxgraph.mockup.graphics.simpleIcon;strokeColor=#999999;" vertex="1" parent="135">
                    <mxGeometry x="355" y="680" width="50" height="50" as="geometry"/>
                </mxCell>
                <mxCell id="198" value="" style="verticalLabelPosition=bottom;shadow=0;dashed=0;align=center;html=1;verticalAlign=top;strokeWidth=1;shape=mxgraph.mockup.graphics.simpleIcon;strokeColor=#999999;" vertex="1" parent="135">
                    <mxGeometry x="410" y="680" width="50" height="50" as="geometry"/>
                </mxCell>
                <mxCell id="199" value="set 1" style="text;html=1;strokeColor=none;fillColor=none;align=center;verticalAlign=middle;whiteSpace=wrap;rounded=0;fontSize=25;" vertex="1" parent="135">
                    <mxGeometry x="470" y="680" width="110" height="20" as="geometry"/>
                </mxCell>
                <mxCell id="200" value="set 3" style="text;html=1;strokeColor=none;fillColor=none;align=center;verticalAlign=middle;whiteSpace=wrap;rounded=0;fontSize=25;" vertex="1" parent="135">
                    <mxGeometry x="690" y="680" width="110" height="20" as="geometry"/>
                </mxCell>
                <mxCell id="201" value="25-20" style="text;html=1;strokeColor=none;fillColor=none;align=center;verticalAlign=middle;whiteSpace=wrap;rounded=0;fontSize=25;" vertex="1" parent="135">
                    <mxGeometry x="695" y="710" width="110" height="20" as="geometry"/>
                </mxCell>
                <mxCell id="162" value="" style="verticalLabelPosition=bottom;shadow=0;dashed=0;align=center;html=1;verticalAlign=top;strokeWidth=1;shape=mxgraph.mockup.graphics.simpleIcon;strokeColor=#999999;" vertex="1" parent="1">
                    <mxGeometry x="1920" y="1320" width="107.5" height="100" as="geometry"/>
                </mxCell>
                <mxCell id="163" value="sconfitte: 1" style="text;html=1;strokeColor=none;fillColor=none;align=center;verticalAlign=middle;whiteSpace=wrap;rounded=0;fontSize=25;" vertex="1" parent="1">
                    <mxGeometry x="2200" y="1380" width="150" height="20" as="geometry"/>
                </mxCell>
                <mxCell id="164" value="29 dicembre" style="text;html=1;strokeColor=none;fillColor=none;align=center;verticalAlign=middle;whiteSpace=wrap;rounded=0;fontSize=25;" vertex="1" parent="1">
                    <mxGeometry x="2245" y="2110" width="170" height="20" as="geometry"/>
                </mxCell>
                <mxCell id="165" value="" style="verticalLabelPosition=bottom;shadow=0;dashed=0;align=center;html=1;verticalAlign=top;strokeWidth=1;shape=mxgraph.mockup.navigation.scrollBar;strokeColor=#999999;barPos=20;fillColor2=#99ddff;strokeColor2=none;direction=north;fontSize=33;" vertex="1" parent="1">
                    <mxGeometry x="2690" y="1340" width="20" height="570" as="geometry"/>
                </mxCell>
                <mxCell id="168" value="Partite" style="text;html=1;strokeColor=none;fillColor=none;align=center;verticalAlign=middle;whiteSpace=wrap;rounded=0;fontSize=40;" vertex="1" parent="1">
                    <mxGeometry x="1920" y="1460" width="120" height="20" as="geometry"/>
                </mxCell>
                <mxCell id="171" value="28 dicembre" style="text;html=1;strokeColor=none;fillColor=none;align=center;verticalAlign=middle;whiteSpace=wrap;rounded=0;fontSize=25;" vertex="1" parent="1">
                    <mxGeometry x="1920" y="1520" width="170" height="20" as="geometry"/>
                </mxCell>
                <mxCell id="173" value="" style="verticalLabelPosition=bottom;shadow=0;dashed=0;align=center;html=1;verticalAlign=top;strokeWidth=1;shape=mxgraph.mockup.graphics.simpleIcon;strokeColor=#999999;" vertex="1" parent="1">
                    <mxGeometry x="1935" y="1560" width="50" height="50" as="geometry"/>
                </mxCell>
                <mxCell id="174" value="" style="verticalLabelPosition=bottom;shadow=0;dashed=0;align=center;html=1;verticalAlign=top;strokeWidth=1;shape=mxgraph.mockup.graphics.simpleIcon;strokeColor=#999999;" vertex="1" parent="1">
                    <mxGeometry x="1990" y="1560" width="50" height="50" as="geometry"/>
                </mxCell>
                <mxCell id="175" value="set 1" style="text;html=1;strokeColor=none;fillColor=none;align=center;verticalAlign=middle;whiteSpace=wrap;rounded=0;fontSize=25;" vertex="1" parent="1">
                    <mxGeometry x="2050" y="1560" width="110" height="20" as="geometry"/>
                </mxCell>
                <mxCell id="180" value="set 3" style="text;html=1;strokeColor=none;fillColor=none;align=center;verticalAlign=middle;whiteSpace=wrap;rounded=0;fontSize=25;" vertex="1" parent="1">
                    <mxGeometry x="2270" y="1560" width="110" height="20" as="geometry"/>
                </mxCell>
                <mxCell id="179" value="23-25" style="text;html=1;strokeColor=none;fillColor=none;align=center;verticalAlign=middle;whiteSpace=wrap;rounded=0;fontSize=25;" vertex="1" parent="1">
                    <mxGeometry x="2275" y="1590" width="110" height="20" as="geometry"/>
                </mxCell>
                <mxCell id="182" value="29 dicembre" style="text;html=1;strokeColor=none;fillColor=none;align=center;verticalAlign=middle;whiteSpace=wrap;rounded=0;fontSize=25;" vertex="1" parent="1">
                    <mxGeometry x="1920" y="1650" width="170" height="20" as="geometry"/>
                </mxCell>
                <mxCell id="202" value="" style="shape=flexArrow;endArrow=classic;html=1;fontSize=40;fillColor=#6a00ff;strokeColor=#3700CC;exitX=1;exitY=0.5;exitDx=0;exitDy=0;entryX=-0.002;entryY=0.397;entryDx=0;entryDy=0;entryPerimeter=0;" edge="1" parent="1" source="94" target="135">
                    <mxGeometry width="50" height="50" relative="1" as="geometry">
                        <mxPoint x="1650" y="870" as="sourcePoint"/>
                        <mxPoint x="1550" y="1300" as="targetPoint"/>
                    </mxGeometry>
                </mxCell>
                <mxCell id="203" value="" style="shape=flexArrow;endArrow=classic;html=1;fontSize=40;fillColor=#d80073;strokeColor=#A50040;entryX=0.931;entryY=0;entryDx=0;entryDy=0;entryPerimeter=0;" edge="1" parent="1" target="48">
                    <mxGeometry width="50" height="50" relative="1" as="geometry">
                        <mxPoint x="1140" y="410" as="sourcePoint"/>
                        <mxPoint x="1869.6" y="621.3" as="targetPoint"/>
                    </mxGeometry>
                </mxCell>
                <mxCell id="205" value="" style="shape=flexArrow;endArrow=classic;html=1;fontSize=40;fillColor=#0050ef;strokeColor=#001DBC;exitX=0.55;exitY=0;exitDx=0;exitDy=0;exitPerimeter=0;entryX=1.003;entryY=0.537;entryDx=0;entryDy=0;entryPerimeter=0;" edge="1" parent="1" source="140" target="3">
                    <mxGeometry width="50" height="50" relative="1" as="geometry">
                        <mxPoint x="2260" y="210" as="sourcePoint"/>
                        <mxPoint x="1560" y="690" as="targetPoint"/>
                    </mxGeometry>
                </mxCell>
                <mxCell id="206" value="" style="shape=flexArrow;endArrow=classic;html=1;fontSize=40;fillColor=#0050ef;strokeColor=#001DBC;entryX=0.683;entryY=1.002;entryDx=0;entryDy=0;entryPerimeter=0;exitX=0.319;exitY=-0.021;exitDx=0;exitDy=0;exitPerimeter=0;" edge="1" parent="1" source="54" target="3">
                    <mxGeometry width="50" height="50" relative="1" as="geometry">
                        <mxPoint x="1070" y="1230" as="sourcePoint"/>
                        <mxPoint x="40" y="690.3400000000001" as="targetPoint"/>
                    </mxGeometry>
                </mxCell>
            </root>
        </mxGraphModel>
    </diagram>
</mxfile>